<svg width="72" height="90" viewBox="0 0 72 90" fill="none" xmlns="http://www.w3.org/2000/svg">
<path d="M14.2266 80V80.625C14.2266 81.4844 14.1146 82.2552 13.8906 82.9375C13.6667 83.6198 13.3464 84.2005 12.9297 84.6797C12.5182 85.1589 12.0234 85.526 11.4453 85.7812C10.8672 86.0312 10.2266 86.1562 9.52344 86.1562C8.82552 86.1562 8.1875 86.0312 7.60938 85.7812C7.03646 85.526 6.53906 85.1589 6.11719 84.6797C5.69531 84.2005 5.36719 83.6198 5.13281 82.9375C4.90365 82.2552 4.78906 81.4844 4.78906 80.625V80C4.78906 79.1406 4.90365 78.3724 5.13281 77.6953C5.36198 77.013 5.6849 76.4323 6.10156 75.9531C6.52344 75.4688 7.02083 75.1016 7.59375 74.8516C8.17188 74.5964 8.8099 74.4688 9.50781 74.4688C10.2109 74.4688 10.8516 74.5964 11.4297 74.8516C12.0078 75.1016 12.5052 75.4688 12.9219 75.9531C13.3385 76.4323 13.6589 77.013 13.8828 77.6953C14.112 78.3724 14.2266 79.1406 14.2266 80ZM12.2656 80.625V79.9844C12.2656 79.349 12.2031 78.7891 12.0781 78.3047C11.9583 77.8151 11.7786 77.4062 11.5391 77.0781C11.3047 76.7448 11.0156 76.4948 10.6719 76.3281C10.3281 76.1562 9.9401 76.0703 9.50781 76.0703C9.07552 76.0703 8.6901 76.1562 8.35156 76.3281C8.01302 76.4948 7.72396 76.7448 7.48438 77.0781C7.25 77.4062 7.07031 77.8151 6.94531 78.3047C6.82031 78.7891 6.75781 79.349 6.75781 79.9844V80.625C6.75781 81.2604 6.82031 81.8229 6.94531 82.3125C7.07031 82.8021 7.2526 83.2161 7.49219 83.5547C7.73698 83.888 8.02865 84.1406 8.36719 84.3125C8.70573 84.4792 9.09115 84.5625 9.52344 84.5625C9.96094 84.5625 10.349 84.4792 10.6875 84.3125C11.026 84.1406 11.3125 83.888 11.5469 83.5547C11.7812 83.2161 11.9583 82.8021 12.0781 82.3125C12.2031 81.8229 12.2656 81.2604 12.2656 80.625ZM17.8906 79.1562V86H16.0078V77.5469H17.8047L17.8906 79.1562ZM20.4766 77.4922L20.4609 79.2422C20.3464 79.2214 20.2214 79.2057 20.0859 79.1953C19.9557 79.1849 19.8255 79.1797 19.6953 79.1797C19.3724 79.1797 19.0885 79.2266 18.8438 79.3203C18.599 79.4089 18.3932 79.5391 18.2266 79.7109C18.0651 79.8776 17.9401 80.0807 17.8516 80.3203C17.763 80.5599 17.7109 80.8281 17.6953 81.125L17.2656 81.1562C17.2656 80.625 17.3177 80.1328 17.4219 79.6797C17.526 79.2266 17.6823 78.8281 17.8906 78.4844C18.1042 78.1406 18.3698 77.8724 18.6875 77.6797C19.0104 77.487 19.3828 77.3906 19.8047 77.3906C19.9193 77.3906 20.0417 77.401 20.1719 77.4219C20.3073 77.4427 20.4089 77.4661 20.4766 77.4922ZM26.6562 84.25V74H28.5469V86H26.8359L26.6562 84.25ZM21.1562 81.8672V81.7031C21.1562 81.0625 21.2318 80.4792 21.3828 79.9531C21.5339 79.4219 21.7526 78.9661 22.0391 78.5859C22.3255 78.2005 22.6745 77.9062 23.0859 77.7031C23.4974 77.4948 23.9609 77.3906 24.4766 77.3906C24.987 77.3906 25.4349 77.4896 25.8203 77.6875C26.2057 77.8854 26.5339 78.1693 26.8047 78.5391C27.0755 78.9036 27.2917 79.3411 27.4531 79.8516C27.6146 80.3568 27.7292 80.9193 27.7969 81.5391V82.0625C27.7292 82.6667 27.6146 83.2188 27.4531 83.7188C27.2917 84.2188 27.0755 84.651 26.8047 85.0156C26.5339 85.3802 26.2031 85.6615 25.8125 85.8594C25.4271 86.0573 24.9766 86.1562 24.4609 86.1562C23.9505 86.1562 23.4896 86.0495 23.0781 85.8359C22.6719 85.6224 22.3255 85.3229 22.0391 84.9375C21.7526 84.5521 21.5339 84.099 21.3828 83.5781C21.2318 83.0521 21.1562 82.4818 21.1562 81.8672ZM23.0391 81.7031V81.8672C23.0391 82.2526 23.0729 82.612 23.1406 82.9453C23.2135 83.2786 23.3255 83.5729 23.4766 83.8281C23.6276 84.0781 23.8229 84.276 24.0625 84.4219C24.3073 84.5625 24.599 84.6328 24.9375 84.6328C25.3646 84.6328 25.7161 84.5391 25.9922 84.3516C26.2682 84.1641 26.4844 83.9115 26.6406 83.5938C26.8021 83.2708 26.9115 82.9115 26.9688 82.5156V81.1016C26.9375 80.7943 26.8724 80.5078 26.7734 80.2422C26.6797 79.9766 26.5521 79.7448 26.3906 79.5469C26.2292 79.3438 26.0286 79.1875 25.7891 79.0781C25.5547 78.9635 25.276 78.9062 24.9531 78.9062C24.6094 78.9062 24.3177 78.9792 24.0781 79.125C23.8385 79.2708 23.6406 79.4714 23.4844 79.7266C23.3333 79.9818 23.2214 80.2786 23.1484 80.6172C23.0755 80.9557 23.0391 81.3177 23.0391 81.7031ZM34.2422 86.1562C33.6172 86.1562 33.0521 86.0547 32.5469 85.8516C32.0469 85.6432 31.6198 85.3542 31.2656 84.9844C30.9167 84.6146 30.6484 84.1797 30.4609 83.6797C30.2734 83.1797 30.1797 82.6406 30.1797 82.0625V81.75C30.1797 81.0885 30.276 80.4896 30.4688 79.9531C30.6615 79.4167 30.9297 78.9583 31.2734 78.5781C31.6172 78.1927 32.0234 77.8984 32.4922 77.6953C32.9609 77.4922 33.4688 77.3906 34.0156 77.3906C34.6198 77.3906 35.1484 77.4922 35.6016 77.6953C36.0547 77.8984 36.4297 78.1849 36.7266 78.5547C37.0286 78.9193 37.2526 79.3542 37.3984 79.8594C37.5495 80.3646 37.625 80.9219 37.625 81.5312V82.3359H31.0938V80.9844H35.7656V80.8359C35.7552 80.4974 35.6875 80.1797 35.5625 79.8828C35.4427 79.5859 35.2578 79.3464 35.0078 79.1641C34.7578 78.9818 34.4245 78.8906 34.0078 78.8906C33.6953 78.8906 33.4167 78.9583 33.1719 79.0938C32.9323 79.224 32.7318 79.4141 32.5703 79.6641C32.4089 79.9141 32.2839 80.2161 32.1953 80.5703C32.112 80.9193 32.0703 81.3125 32.0703 81.75V82.0625C32.0703 82.4323 32.1198 82.776 32.2188 83.0938C32.3229 83.4062 32.474 83.6797 32.6719 83.9141C32.8698 84.1484 33.1094 84.3333 33.3906 84.4688C33.6719 84.599 33.9922 84.6641 34.3516 84.6641C34.8047 84.6641 35.2083 84.5729 35.5625 84.3906C35.9167 84.2083 36.224 83.9505 36.4844 83.6172L37.4766 84.5781C37.2943 84.8438 37.0573 85.099 36.7656 85.3438C36.474 85.5833 36.1172 85.7786 35.6953 85.9297C35.2786 86.0807 34.7943 86.1562 34.2422 86.1562ZM40.9609 79.3516V86H39.0781V77.5469H40.8516L40.9609 79.3516ZM40.625 81.4609L40.0156 81.4531C40.0208 80.8542 40.1042 80.3047 40.2656 79.8047C40.4323 79.3047 40.6615 78.875 40.9531 78.5156C41.25 78.1562 41.6042 77.8802 42.0156 77.6875C42.4271 77.4896 42.8854 77.3906 43.3906 77.3906C43.7969 77.3906 44.1641 77.4479 44.4922 77.5625C44.8255 77.6719 45.1094 77.8516 45.3438 78.1016C45.5833 78.3516 45.7656 78.6771 45.8906 79.0781C46.0156 79.474 46.0781 79.9609 46.0781 80.5391V86H44.1875V80.5312C44.1875 80.125 44.1276 79.8047 44.0078 79.5703C43.8932 79.3307 43.724 79.1615 43.5 79.0625C43.2812 78.9583 43.0078 78.9062 42.6797 78.9062C42.3568 78.9062 42.0677 78.974 41.8125 79.1094C41.5573 79.2448 41.3411 79.4297 41.1641 79.6641C40.9922 79.8984 40.8594 80.1693 40.7656 80.4766C40.6719 80.7839 40.625 81.112 40.625 81.4609ZM52.7656 84.3047V80.2734C52.7656 79.9714 52.7109 79.7109 52.6016 79.4922C52.4922 79.2734 52.3255 79.1042 52.1016 78.9844C51.8828 78.8646 51.6068 78.8047 51.2734 78.8047C50.9661 78.8047 50.7005 78.8568 50.4766 78.9609C50.2526 79.0651 50.0781 79.2057 49.9531 79.3828C49.8281 79.5599 49.7656 79.7604 49.7656 79.9844H47.8906C47.8906 79.651 47.9714 79.3281 48.1328 79.0156C48.2943 78.7031 48.5286 78.4245 48.8359 78.1797C49.1432 77.9349 49.5104 77.7422 49.9375 77.6016C50.3646 77.4609 50.8438 77.3906 51.375 77.3906C52.0104 77.3906 52.5729 77.4974 53.0625 77.7109C53.5573 77.9245 53.9453 78.2474 54.2266 78.6797C54.513 79.1068 54.6562 79.6432 54.6562 80.2891V84.0469C54.6562 84.4323 54.6823 84.7786 54.7344 85.0859C54.7917 85.388 54.8724 85.651 54.9766 85.875V86H53.0469C52.9583 85.7969 52.888 85.5391 52.8359 85.2266C52.7891 84.9089 52.7656 84.6016 52.7656 84.3047ZM53.0391 80.8594L53.0547 82.0234H51.7031C51.3542 82.0234 51.0469 82.0573 50.7812 82.125C50.5156 82.1875 50.2943 82.2812 50.1172 82.4062C49.9401 82.5312 49.8073 82.6823 49.7188 82.8594C49.6302 83.0365 49.5859 83.237 49.5859 83.4609C49.5859 83.6849 49.638 83.8906 49.7422 84.0781C49.8464 84.2604 49.9974 84.4036 50.1953 84.5078C50.3984 84.612 50.6432 84.6641 50.9297 84.6641C51.3151 84.6641 51.651 84.5859 51.9375 84.4297C52.2292 84.2682 52.4583 84.0729 52.625 83.8438C52.7917 83.6094 52.8802 83.388 52.8906 83.1797L53.5 84.0156C53.4375 84.2292 53.3307 84.4583 53.1797 84.7031C53.0286 84.9479 52.8307 85.1823 52.5859 85.4062C52.3464 85.625 52.0573 85.8047 51.7188 85.9453C51.3854 86.0859 51 86.1562 50.5625 86.1562C50.0104 86.1562 49.5182 86.0469 49.0859 85.8281C48.6536 85.6042 48.3151 85.3047 48.0703 84.9297C47.8255 84.5495 47.7031 84.1198 47.7031 83.6406C47.7031 83.1927 47.7865 82.7969 47.9531 82.4531C48.125 82.1042 48.375 81.8125 48.7031 81.5781C49.0365 81.3438 49.4427 81.1667 49.9219 81.0469C50.401 80.9219 50.9479 80.8594 51.5625 80.8594H53.0391ZM58.5156 79.1562V86H56.6328V77.5469H58.4297L58.5156 79.1562ZM61.1016 77.4922L61.0859 79.2422C60.9714 79.2214 60.8464 79.2057 60.7109 79.1953C60.5807 79.1849 60.4505 79.1797 60.3203 79.1797C59.9974 79.1797 59.7135 79.2266 59.4688 79.3203C59.224 79.4089 59.0182 79.5391 58.8516 79.7109C58.6901 79.8776 58.5651 80.0807 58.4766 80.3203C58.388 80.5599 58.3359 80.8281 58.3203 81.125L57.8906 81.1562C57.8906 80.625 57.9427 80.1328 58.0469 79.6797C58.151 79.2266 58.3073 78.8281 58.5156 78.4844C58.7292 78.1406 58.9948 77.8724 59.3125 77.6797C59.6354 77.487 60.0078 77.3906 60.4297 77.3906C60.5443 77.3906 60.6667 77.401 60.7969 77.4219C60.9323 77.4427 61.0339 77.4661 61.1016 77.4922Z" fill="#666666"/>
<g filter="url(#filter0_d_5994_14631)">
<rect x="4" width="63.0145" height="65.4199" rx="31.5072" fill="white" shape-rendering="crispEdges"/>
<path d="M35.5759 20.0168C38.9766 20.0168 42.3773 20.0168 45.7881 20.0168C45.9189 20.0168 46.0698 19.9725 46.1905 20.0279C46.4622 20.1607 46.8546 20.2715 46.9552 20.5151C47.0658 20.7809 47.0155 21.2682 46.8546 21.5229C45.949 22.9848 45.0033 24.4135 44.0676 25.8643C42.3069 28.5776 40.5361 31.2909 38.7854 34.0264C38.6144 34.2922 38.5138 34.6576 38.5037 34.9788C38.4836 37.2824 38.4836 39.597 38.5037 41.9006C38.5138 42.4986 38.3126 42.8641 37.8296 43.1188C36.5317 43.8054 35.2539 44.5364 33.9661 45.2341C33.1511 45.6771 32.6179 45.3116 32.6078 44.3149C32.6078 41.2361 32.6179 38.1462 32.5877 35.0674C32.5877 34.6909 32.467 34.259 32.2658 33.9599C29.67 29.9176 27.054 25.8975 24.4381 21.8773C24.3174 21.7001 24.1866 21.5229 24.096 21.3236C23.8445 20.7809 24.1061 20.1718 24.6595 20.05C24.8406 20.0057 25.0217 20.0168 25.2128 20.0168C28.6638 20.0057 32.1148 20.0168 35.5759 20.0168ZM34.2076 43.0966C35.0225 42.6536 35.7469 42.2328 36.4814 41.8563C36.7933 41.7012 36.8738 41.4908 36.8738 41.1364C36.8637 38.9436 36.8436 36.7397 36.8839 34.5469C36.8939 34.1371 37.0247 33.672 37.236 33.3287C39.5903 29.6518 41.9748 25.9861 44.3493 22.3314C44.4499 22.1764 44.5304 22.0213 44.6411 21.822C38.5339 21.822 32.5072 21.822 26.4 21.822C26.551 22.0545 26.6516 22.2096 26.7522 22.3757C29.1166 26.0304 31.491 29.6629 33.8353 33.3287C34.0466 33.6609 34.1874 34.1371 34.1874 34.5469C34.2176 37.1716 34.2076 39.7853 34.2076 42.41C34.2076 42.6093 34.2076 42.7976 34.2076 43.0966Z" fill="#27ABB1"/>
</g>
<defs>
<filter id="filter0_d_5994_14631" x="0" y="0" width="71.0156" height="73.4199" filterUnits="userSpaceOnUse" color-interpolation-filters="sRGB">
<feFlood flood-opacity="0" result="BackgroundImageFix"/>
<feColorMatrix in="SourceAlpha" type="matrix" values="0 0 0 0 0 0 0 0 0 0 0 0 0 0 0 0 0 0 127 0" result="hardAlpha"/>
<feOffset dy="4"/>
<feGaussianBlur stdDeviation="2"/>
<feComposite in2="hardAlpha" operator="out"/>
<feColorMatrix type="matrix" values="0 0 0 0 0 0 0 0 0 0 0 0 0 0 0 0 0 0 0.25 0"/>
<feBlend mode="normal" in2="BackgroundImageFix" result="effect1_dropShadow_5994_14631"/>
<feBlend mode="normal" in="SourceGraphic" in2="effect1_dropShadow_5994_14631" result="shape"/>
</filter>
</defs>
</svg>
